<svg version="1.1" xmlns="http://www.w3.org/2000/svg" viewBox="-296.2 -2975.1499999999996 5074.4 3297.35"><desc>Created with Snap</desc><defs></defs><g><g transform="matrix(21.648,0,0,21.648,1147.7708,-2938.8206)"><g><path d="M74.265,60.41c0.964,2.929,1.401,5.966,1.261,9.015c2.584-0.989,5.013-2.49,7.095-4.572c0.244-0.244,0.41-0.527,0.637-0.78   c0.018-0.341,0.105-0.659,0.105-1.004c0-2.924-0.646-5.691-1.764-8.203C79.522,57.139,77.045,59.022,74.265,60.41z" fill="#4a274f" style=""></path><path d="M54.863,81.605c2.509,1.112,5.276,1.759,8.2,1.759c0.349,0,0.664-0.085,1.004-0.103c0.253-0.227,0.541-0.393,0.781-0.637   c2.08-2.085,3.585-4.516,4.572-7.104c-3.049,0.14-6.086-0.292-9.01-1.257C59.022,77.049,57.137,79.528,54.863,81.605z" fill="#4a274f" style=""></path><path d="M40.588,74.265c-2.925,0.965-5.965,1.396-9.013,1.257c0.988,2.588,2.49,5.023,4.573,7.104   c0.242,0.244,0.528,0.41,0.779,0.637c0.339,0.018,0.661,0.103,1.003,0.103c2.926,0,5.691-0.646,8.202-1.759   C43.861,79.528,41.976,77.049,40.588,74.265z" fill="#4a274f" style=""></path><path d="M26.731,60.41c-2.781-1.388-5.26-3.271-7.337-5.545c-1.112,2.512-1.758,5.279-1.758,8.203c0,0.345,0.085,0.663,0.1,1.004   c0.229,0.253,0.395,0.536,0.639,0.78c2.082,2.082,4.515,3.583,7.098,4.572C25.333,66.376,25.767,63.339,26.731,60.41z" fill="#4a274f" style=""></path><path d="M26.731,40.592c-0.964-2.929-1.398-5.966-1.259-9.016c-2.583,0.989-5.014,2.491-7.098,4.572   c-0.244,0.245-0.41,0.528-0.639,0.781c-0.015,0.341-0.1,0.659-0.1,1.004c0,2.924,0.646,5.69,1.76,8.205   C21.471,43.863,23.95,41.979,26.731,40.592z" fill="#4a274f" style=""></path><path d="M46.132,19.397c-2.511-1.114-5.275-1.76-8.202-1.76c-0.342,0-0.664,0.084-1.003,0.102   c-0.251,0.228-0.537,0.393-0.779,0.638c-2.083,2.08-3.585,4.515-4.573,7.103c3.048-0.14,6.088,0.293,9.013,1.257   C41.976,23.952,43.861,21.475,46.132,19.397z" fill="#4a274f" style=""></path><path d="M60.41,26.736c2.924-0.964,5.961-1.396,9.01-1.257c-0.99-2.588-2.492-5.017-4.572-7.103   c-0.24-0.245-0.528-0.41-0.781-0.638c-0.34-0.018-0.659-0.102-1.004-0.102c-2.924,0-5.691,0.646-8.2,1.76   C57.137,21.475,59.022,23.952,60.41,26.736z" fill="#4a274f" style=""></path><path d="M82.621,36.148c-2.082-2.081-4.511-3.583-7.095-4.572c0.14,3.05-0.297,6.087-1.261,9.016   c2.78,1.388,5.257,3.271,7.334,5.547c1.117-2.515,1.764-5.281,1.764-8.205c0-0.345-0.088-0.663-0.105-1.004   C83.031,36.677,82.865,36.394,82.621,36.148z" fill="#4a274f" style=""></path><path d="M58.228,63.068c0-0.166-0.048-0.319-0.052-0.484c-1.061-0.21-2.09-0.498-3.099-0.834c-0.462,0.921-0.89,1.851-1.469,2.719   c0.113,0.122,0.19,0.267,0.309,0.384c1.143,1.14,2.404,2.069,3.718,2.881C57.993,66.228,58.228,64.683,58.228,63.068z" fill="#4a274f" style=""></path><path d="M43.362,67.733c1.313-0.812,2.574-1.741,3.715-2.881c0.12-0.117,0.199-0.262,0.312-0.384   c-0.581-0.868-1.008-1.798-1.471-2.719c-1.008,0.336-2.038,0.624-3.1,0.834c-0.002,0.165-0.048,0.318-0.048,0.484   C42.771,64.683,43.006,66.228,43.362,67.733z" fill="#4a274f" style=""></path><path d="M36.148,53.922c-1.139,1.14-2.068,2.4-2.88,3.717c1.503,0.355,3.051,0.59,4.663,0.59c0.166,0,0.318-0.044,0.484-0.048   c0.209-1.06,0.495-2.094,0.833-3.102c-0.918-0.463-1.848-0.886-2.716-1.471C36.411,53.726,36.269,53.805,36.148,53.922z" fill="#4a274f" style=""></path><path d="M38.415,42.821c-0.166-0.006-0.319-0.05-0.484-0.05c-1.612,0-3.159,0.236-4.663,0.591c0.812,1.318,1.739,2.578,2.88,3.717   c0.12,0.118,0.262,0.196,0.384,0.314c0.868-0.583,1.797-1.008,2.716-1.471C38.91,44.916,38.625,43.881,38.415,42.821z" fill="#4a274f" style=""></path><path d="M42.771,37.934c0,0.166,0.046,0.318,0.048,0.484c1.062,0.21,2.092,0.498,3.1,0.834c0.462-0.921,0.89-1.851,1.471-2.719   c-0.113-0.123-0.192-0.267-0.312-0.385c-1.141-1.139-2.402-2.066-3.715-2.879C43.006,34.774,42.771,36.319,42.771,37.934z" fill="#4a274f" style=""></path><path d="M57.635,33.27c-1.314,0.812-2.575,1.74-3.718,2.879c-0.118,0.118-0.195,0.262-0.309,0.385   c0.579,0.868,1.007,1.798,1.469,2.719c1.008-0.336,2.038-0.624,3.099-0.834c0.004-0.166,0.052-0.318,0.052-0.484   C58.228,36.319,57.993,34.774,57.635,33.27z" fill="#4a274f" style=""></path><path d="M63.063,42.771c-0.166,0-0.314,0.044-0.48,0.05c-0.209,1.06-0.498,2.095-0.838,3.102c0.921,0.463,1.851,0.888,2.719,1.471   c0.122-0.118,0.266-0.196,0.384-0.314c1.139-1.139,2.067-2.398,2.883-3.717C66.226,43.008,64.678,42.771,63.063,42.771z" fill="#4a274f" style=""></path><path d="M48.074,49.493c-0.035,0.676-0.035,1.339,0,2.012c0.452,0.502,0.921,0.969,1.42,1.423c0.671,0.034,1.335,0.034,2.007,0   c0.5-0.454,0.972-0.926,1.423-1.423c0.035-0.673,0.033-1.336,0-2.008c-0.451-0.502-0.921-0.969-1.42-1.423   c-0.673-0.035-1.34-0.035-2.012,0C48.995,48.528,48.524,48.995,48.074,49.493z" fill="#4a274f" style=""></path><path d="M64.464,53.608c-0.868,0.585-1.798,1.008-2.719,1.471c0.34,1.008,0.628,2.042,0.838,3.102   c0.166,0.004,0.314,0.048,0.48,0.048c1.615,0,3.163-0.234,4.668-0.59c-0.816-1.316-1.745-2.577-2.883-3.717   C64.73,53.805,64.586,53.726,64.464,53.608z" fill="#4a274f" style=""></path><path d="M72.271,55.926c2.583-1.327,4.827-3.173,6.615-5.425c-1.788-2.252-4.031-4.098-6.615-5.425   c-1.091,1.929-2.357,3.784-3.998,5.425C69.914,52.142,71.179,53.996,72.271,55.926z" fill="#4a274f" style=""></path><path d="M62.138,31.245c0.585,2.133,0.925,4.367,0.925,6.688c2.322,0,4.555,0.341,6.689,0.93c0.868-2.745,1.143-5.603,0.82-8.436   C67.74,30.104,64.879,30.375,62.138,31.245z" fill="#4a274f" style=""></path><path d="M50.498,22.11c-2.253,1.794-4.099,4.033-5.424,6.616c1.927,1.096,3.782,2.361,5.424,4.002   c1.644-1.641,3.498-2.906,5.426-4.002C54.597,26.144,52.752,23.904,50.498,22.11z" fill="#4a274f" style=""></path><path d="M37.931,37.934c0-2.321,0.34-4.556,0.927-6.688c-2.74-0.87-5.601-1.141-8.432-0.817c-0.323,2.833-0.05,5.69,0.817,8.436   C33.377,38.274,35.612,37.934,37.931,37.934z" fill="#4a274f" style=""></path><path d="M22.108,50.501c1.794,2.252,4.034,4.098,6.618,5.425c1.091-1.93,2.356-3.784,3.999-5.425   c-1.643-1.641-2.908-3.496-4.001-5.425C26.143,46.403,23.902,48.249,22.108,50.501z" fill="#4a274f" style=""></path><path d="M38.858,69.757c-0.587-2.133-0.927-4.367-0.927-6.688c-2.319,0-4.553-0.341-6.688-0.93   c-0.868,2.745-1.14,5.604-0.817,8.436C33.257,70.896,36.118,70.627,38.858,69.757z" fill="#4a274f" style=""></path><path d="M50.498,78.891c2.255-1.793,4.1-4.032,5.426-6.616c-1.929-1.095-3.782-2.36-5.426-4c-1.642,1.64-3.497,2.905-5.424,4   C46.401,74.858,48.245,77.098,50.498,78.891z" fill="#4a274f" style=""></path><path d="M63.063,63.068c0,2.321-0.34,4.556-0.925,6.688c2.741,0.87,5.602,1.139,8.435,0.817c0.323-2.832,0.048-5.695-0.82-8.436   C67.618,62.728,65.385,63.068,63.063,63.068z" fill="#4a274f" style=""></path><path d="M87.425,44.026c-0.571,2.304-1.457,4.476-2.614,6.475c1.157,1.999,2.043,4.177,2.614,6.475   C88.844,52.771,88.844,48.231,87.425,44.026z" fill="#4a274f" style=""></path><path d="M81.233,29.05c-1.981-4.041-5.244-7.301-9.286-9.282c1.249,2.063,2.147,4.268,2.745,6.541   C76.966,26.907,79.165,27.802,81.233,29.05z" fill="#4a274f" style=""></path><path d="M56.971,13.576c-4.204-1.418-8.742-1.418-12.947,0c2.3,0.571,4.473,1.453,6.473,2.614   C52.5,15.029,54.671,14.147,56.971,13.576z" fill="#4a274f" style=""></path><path d="M29.047,19.768c-4.042,1.981-7.301,5.241-9.284,9.282c2.066-1.248,4.268-2.143,6.541-2.741   C26.904,24.035,27.798,21.831,29.047,19.768z" fill="#4a274f" style=""></path><path d="M13.571,56.973c0.574-2.3,1.458-4.473,2.616-6.472c-1.159-1.999-2.04-4.171-2.616-6.472   C12.158,48.231,12.158,52.771,13.571,56.973z" fill="#4a274f" style=""></path><path d="M19.765,71.952c1.981,4.041,5.24,7.297,9.279,9.282c-1.248-2.068-2.141-4.269-2.741-6.542   C24.031,74.095,21.829,73.2,19.765,71.952z" fill="#4a274f" style=""></path><path d="M44.024,87.426c4.205,1.418,8.746,1.418,12.947,0c-2.3-0.572-4.472-1.453-6.474-2.614   C48.498,85.973,46.324,86.854,44.024,87.426z" fill="#4a274f" style=""></path><path d="M71.952,81.234c4.037-1.985,7.3-5.241,9.281-9.282c-2.068,1.248-4.267,2.143-6.541,2.74   C74.095,76.966,73.2,79.166,71.952,81.234z" fill="#4a274f" style=""></path></g><desc>Created with Snap</desc><defs></defs></g><g><g transform="matrix(1,0,0,-1,0,0)"><path d="M261 16Q234 88 161 230Q88 373 64 420Q11 529 11 548Q11 561 62 581Q97 516 127 451Q158 387 188 330Q259 191 304 138Q320 154 376 274L458 447Q524 587 543 630Q578 672 602 672Q626 672 626 630L342 7Q325 -4 298 -4Q272 -4 261 16ZM772 630L995 635Q1095 635 1128 622L1128 573Q1101 569 1054 568Q1007 568 954 567Q806 564 752 552Q735 472 736 443Q737 414 738 398Q742 359 742 306Q810 306 897 318Q985 330 1033 335Q1081 341 1132 341L1132 286L749 238L755 74Q854 74 957 83Q1061 93 1114 97Q1168 102 1228 102Q1228 82 1216 64Q1192 32 1173 45Q997 26 858 15Q720 4 672 0L676 638Q702 630 772 630ZM1853 615L1856 353Q1856 49 1831 -3L1758 3Q1703 98 1573 270Q1522 338 1471 405Q1421 472 1379 538Q1359 449 1359 182Q1359 80 1355 10Q1336 -8 1313 -8Q1291 -8 1282 -4Q1273 1 1273 11Q1273 22 1275 44Q1278 67 1281 120Q1285 173 1288 232Q1296 386 1296 497Q1296 609 1294 681Q1316 701 1328 710Q1340 719 1355 709Q1370 700 1393 668Q1417 637 1460 575Q1607 366 1749 183L1768 681Q1779 701 1790 708Q1801 716 1819 716Q1854 716 1854 652L1853 615ZM2380 491L2291 493Q2256 493 2210 486Q2208 447 2202 385Q2181 165 2181 99Q2181 34 2183 7L2089 0L2120 494L1907 506Q1899 506 1894 519Q1890 532 1890 543Q1890 554 1899 567Q1908 580 1920 580Q1993 577 2067 570Q2204 558 2300 558L2362 560Q2435 562 2507 576Q2523 573 2527 526Q2528 516 2528 510Q2462 491 2380 491ZM3054 16Q3054 -2 3023 -2Q3008 -2 2995 2Q2983 7 2980 10L2990 138Q2898 59 2856 39Q2790 6 2721 6Q2708 6 2694 7Q2548 23 2548 194Q2548 272 2588 459Q2601 517 2605 565Q2608 566 2618 566Q2618 566 2630 566Q2635 567 2639 567Q2671 567 2671 519Q2671 486 2658 437Q2618 276 2618 214Q2618 149 2652 112Q2674 88 2721 83Q2727 83 2733 83Q2896 83 2947 240Q2977 332 2982 462Q2985 522 2987 581Q2998 611 3017 611Q3036 611 3059 594Q3062 536 3062 480L3052 98Q3052 57 3054 16ZM3221 594Q3276 647 3420 647Q3510 647 3571 629Q3632 611 3662 591Q3693 571 3693 547Q3693 492 3565 438Q3546 429 3465 401Q3385 374 3357 364Q3296 341 3276 328Q3276 323 3280 319Q3284 316 3299 307Q3314 299 3344 283Q3374 268 3427 239Q3585 153 3752 55Q3760 49 3773 38Q3786 28 3786 15Q3786 3 3778 -2Q3770 -7 3759 -10Q3748 -12 3736 -12L3716 -12Q3696 -12 3632 31Q3569 74 3522 106Q3476 138 3428 168Q3315 241 3249 263L3249 34Q3249 14 3215 14L3204 14Q3183 14 3173 35Q3159 67 3159 153L3162 354Q3162 502 3149 614Q3173 655 3208 611Q3216 601 3221 594ZM3559 582L3494 583Q3268 583 3234 531Q3224 517 3224 495Q3224 474 3226 458Q3231 417 3249 399Q3252 398 3259 398Q3267 398 3287 402Q3308 406 3342 416Q3377 427 3416 442Q3455 457 3491 473Q3604 524 3604 556Q3604 574 3559 582ZM4382 366L4410 366Q4427 366 4442 363Q4458 360 4458 341Q4465 301 4411 302Q4396 303 4383 304Q4371 305 4363 304Q4355 304 4356 299Q4366 270 4377 234Q4389 198 4403 162Q4439 73 4471 34Q4454 13 4431 -1Q4409 -15 4407 -15Q4406 -15 4405 -14L4264 283L3991 216L3981 174Q3952 59 3916 14Q3910 4 3891 12Q3859 24 3859 32Q3859 34 3880 90Q3901 146 3922 203Q3944 261 3967 324Q3991 387 4012 444Q4033 501 4050 546Q4067 592 4074 612Q4081 633 4083 648Q4086 664 4091 675Q4101 698 4141 698Q4184 674 4207 635Q4231 597 4247 553Q4264 509 4280 464Q4296 419 4323 382Q4332 368 4350 367Q4368 366 4382 366ZM4132 582Q4124 521 4096 457Q4068 393 4051 357Q4034 322 4022 292Q4090 292 4189 332Q4214 343 4237 352Q4190 553 4132 582Z" fill="#4a274f" style=""></path></g></g></g></svg>